<svg width="192" height="192" viewBox="0 0 192 192" fill="none" xmlns="http://www.w3.org/2000/svg">
<path fill-rule="evenodd" clip-rule="evenodd" d="M44.5714 138.415H58.2857V131.551H44.5714V138.415ZM164.472 87.5603C163.701 77.1478 158.609 69.4808 150.521 66.773C144.01 64.6005 136.838 66.1346 131.376 70.5859C128.064 64.0549 123.086 57.6577 118.978 53.6046C104.249 39.0668 88.0046 35.3603 70.6834 42.5845C55.2206 49.0195 41.1429 70.1569 41.1429 86.9357V87.5878C31.8617 90.7246 24.3737 97.5404 20.8251 106.23L27.1749 108.825C31.6971 97.7498 42.2811 94.2767 45.4183 93.477C46.9371 93.0892 48 91.7198 48 90.1514V86.9357C48 73.0672 60.5383 54.2395 73.32 48.9199C88.0457 42.7802 101.41 45.8964 114.165 58.4917C119.589 63.8421 124.893 71.7802 127.063 77.8033C127.488 78.9907 128.53 79.8453 129.778 80.034C131.013 80.2228 132.264 79.7114 133.025 78.7024C136.814 73.6643 142.958 71.4816 148.351 73.2834C154.299 75.2774 157.714 81.5029 157.714 90.3677C157.714 92.0459 158.928 93.477 160.581 93.7516C163.094 94.1703 185.143 98.4911 185.143 121.255C185.143 144.833 162.106 145.272 161.143 145.279H82.2857V152.143H161.15C171.819 152.122 192 145.643 192 121.255C192 99.9737 175.814 90.3917 164.472 87.5603ZM65.1429 138.415H113.143V131.551H65.1429V138.415ZM51.4286 152.143H72V145.279H51.4286V152.143ZM0 152.143H10.2857V145.279H0V152.143ZM10.2857 124.687H41.1429V117.823H10.2857V124.687ZM3.42857 138.415H37.7143V131.551H3.42857V138.415ZM51.4286 124.687H75.4286V117.823H51.4286V124.687ZM17.1429 152.143H44.5714V145.279H17.1429V152.143Z" fill="url(#paint0_linear)"/>
<defs>
<linearGradient id="paint0_linear" x1="7.55622" y1="152.143" x2="95.2663" y2="-9.41471" gradientUnits="userSpaceOnUse">
<stop stop-color="#C8511B"/>
<stop offset="1" stop-color="#FF9900"/>
</linearGradient>
</defs>
</svg>
